<!--?xml version="1.0" standalone="no"?-->
              <svg id="sw-js-blob-svg" viewBox="0 0 100 100" xmlns="http://www.w3.org/2000/svg" version="1.1">
                    <defs> 
                        <linearGradient id="sw-gradient" x1="0" x2="1" y1="1" y2="0">
                            <stop id="stop1" stop-color="rgba(0, 57, 8, 1)" offset="40%"></stop>
                            <stop id="stop2" stop-color="rgba(144, 116, 25, 1)" offset="100%"></stop>
                        </linearGradient>
                    </defs>
                <path fill="url(#sw-gradient)" d="M24.6,-34.5C32,-33.5,38.2,-26.9,39.2,-19.4C40.3,-12,36.2,-3.7,33.3,3.6C30.4,10.9,28.7,17.1,25.2,22.8C21.8,28.5,16.6,33.5,10.4,35.3C4.2,37,-2.9,35.5,-9.6,33.2C-16.3,31,-22.6,28,-28.3,23.4C-34.1,18.8,-39.3,12.6,-40.6,5.7C-41.9,-1.3,-39.2,-9,-36,-16.7C-32.9,-24.3,-29.1,-31.9,-23,-33.4C-16.9,-35,-8.5,-30.6,0.1,-30.7C8.6,-30.8,17.2,-35.4,24.6,-34.5Z" width="100%" height="100%" transform="translate(50 50)" style="transition: all 0.3s ease 0s;" stroke-width="0" stroke="url(#sw-gradient)"></path>
              </svg>