<?xml version="1.0" standalone="no"?>
<svg xmlns:xlink="http://www.w3.org/1999/xlink" id="wave" style="transform:rotate(0deg); transition: 0.3s" viewBox="0 0 1440 130" version="1.1" xmlns="http://www.w3.org/2000/svg"><defs><linearGradient id="sw-gradient-0" x1="0" x2="0" y1="1" y2="0"><stop stop-color="rgba(0, 56, 7, 1)" offset="0%"/><stop stop-color="rgba(0, 56, 7, 1)" offset="100%"/></linearGradient></defs><path style="transform:translate(0, 0px); opacity:1" fill="url(#sw-gradient-0)" d="M0,65L60,69.3C120,74,240,82,360,82.3C480,82,600,74,720,75.8C840,78,960,91,1080,95.3C1200,100,1320,95,1440,95.3C1560,95,1680,100,1800,99.7C1920,100,2040,95,2160,86.7C2280,78,2400,65,2520,65C2640,65,2760,78,2880,73.7C3000,69,3120,48,3240,43.3C3360,39,3480,52,3600,65C3720,78,3840,91,3960,99.7C4080,108,4200,113,4320,97.5C4440,82,4560,48,4680,41.2C4800,35,4920,56,5040,60.7C5160,65,5280,52,5400,39C5520,26,5640,13,5760,6.5C5880,0,6000,0,6120,19.5C6240,39,6360,78,6480,95.3C6600,113,6720,108,6840,97.5C6960,87,7080,69,7200,69.3C7320,69,7440,87,7560,91C7680,95,7800,87,7920,78C8040,69,8160,61,8280,58.5C8400,56,8520,61,8580,62.8L8640,65L8640,130L8580,130C8520,130,8400,130,8280,130C8160,130,8040,130,7920,130C7800,130,7680,130,7560,130C7440,130,7320,130,7200,130C7080,130,6960,130,6840,130C6720,130,6600,130,6480,130C6360,130,6240,130,6120,130C6000,130,5880,130,5760,130C5640,130,5520,130,5400,130C5280,130,5160,130,5040,130C4920,130,4800,130,4680,130C4560,130,4440,130,4320,130C4200,130,4080,130,3960,130C3840,130,3720,130,3600,130C3480,130,3360,130,3240,130C3120,130,3000,130,2880,130C2760,130,2640,130,2520,130C2400,130,2280,130,2160,130C2040,130,1920,130,1800,130C1680,130,1560,130,1440,130C1320,130,1200,130,1080,130C960,130,840,130,720,130C600,130,480,130,360,130C240,130,120,130,60,130L0,130Z"/></svg>